<svg xmlns="http://www.w3.org/2000/svg" viewBox="0 0 64 64" fill="none">
  <rect x="6" y="6" width="52" height="52" rx="14" fill="#0E172A"/>
  <rect x="14" y="14" width="36" height="36" rx="10" fill="#3B82F6"/>
  <path d="M41.5 26.5h-8.6c-4.4 0-7.4 2.9-7.4 7.2v0.1c0 4.5 3.2 7.5 7.7 7.5h4.1c2 0 3.3 1.2 3.3 2.9v0.1c0 1.8-1.2 2.9-3.2 2.9h-6.9c-1.5 0-2.8 1.2-2.8 2.8s1.2 2.8 2.8 2.8h7.2c5 0 8.4-3 8.4-7.7v-0.1c0-4.7-3.2-7.5-7.9-7.5h-4.1c-1.8 0-3.1-1-3.1-2.7v-0.1c0-1.6 1.2-2.7 3.1-2.7h8.4c1.5 0 2.8-1.2 2.8-2.8 0-1.5-1.3-2.7-2.8-2.7Z" fill="white"/>
</svg>
